Coordinates
version=1
nRows=14
nColumns=36
inDegrees=yes

Units are S.I. units (second, meters, Newtons, ...)
If the header above contains a line with 'inDegrees', this indicates whether rotational values are in degrees (yes) or radians (no).

endheader
time	pelvis_tilt	pelvis_list	pelvis_rotation	pelvis_tx	pelvis_ty	pelvis_tz	hip_flexion_r	hip_adduction_r	hip_rotation_r	knee_angle_r	knee_angle_r_beta	ankle_angle_r	subtalar_angle_r	mtp_angle_r	hip_flexion_l	hip_adduction_l	hip_rotation_l	knee_angle_l	knee_angle_l_beta	ankle_angle_l	subtalar_angle_l	mtp_angle_l	lumbar_extension	lumbar_bending	lumbar_rotation	arm_flex_r	arm_add_r	arm_rot_r	elbow_flex_r	pro_sup_r	arm_flex_l	arm_add_l	arm_rot_l	elbow_flex_l	pro_sup_l
      0.00000000	     -4.25317323	      8.40355340	     -4.18196672	      0.05841981	      1.08161467	      0.14176565	      2.68519309	     -4.09028384	     -6.59746627	     13.52794878	      0.23610725	      9.30347030	     -6.85791593	     -7.56909528	     20.85911069	     11.81391264	      1.07815615	     14.83389217	      0.25890026	      9.35311148	    -10.25020967	     -7.56909528	     -8.12416711	     -5.03418610	     -2.65372697	     47.04181477	      9.14254767	     60.22244439	    121.91066069	    107.89409199	     32.29571649	     12.86543943	     52.12234220	    120.38915829	    105.90422944
      0.01666670	     -4.45562082	     10.56469502	     -4.17427255	      0.05863040	      1.08076133	      0.14230029	      4.01929551	     -6.76224072	     -7.37855483	     14.94417482	      0.26082505	     16.29333253	     -5.43644424	     -7.56651043	     21.89764423	     14.43587481	      0.84103275	     15.10457609	      0.26362458	     11.50892171	     -8.87778415	     -7.56651043	     -8.66985694	     -6.79882863	     -2.93603515	     50.21636250	     10.04848405	     62.52371822	    123.10832736	    107.65907285	     33.78596646	     13.29388687	     53.27764176	    122.00077298	    105.60904375
      0.03333330	     -5.31236511	     12.25687691	     -4.11056028	      0.05893110	      1.07817884	      0.14399557	      5.40747925	     -8.61265009	     -8.54118378	     15.42546902	      0.26922522	     20.22693192	     -5.70390888	     -7.56212934	     22.88841550	     16.17075244	      0.71708328	     14.25974031	      0.24887942	     13.18713044	     -8.21949617	     -7.56212934	     -7.88350706	     -8.94398097	     -2.67383985	     50.04442470	     10.53504985	     63.63538437	    123.87516547	    107.65175288	     34.48073780	     13.37804024	     54.47212610	    122.49994919	    105.25355446
      0.05000000	     -5.16797061	     13.03437142	     -3.75711715	      0.06017587	      1.07816351	      0.14479063	      5.48407672	     -9.61460626	     -9.98229526	     15.93262667	      0.27807679	     22.23926561	     -4.75844508	     -7.55623093	     22.75625345	     17.32819816	      1.67407413	     13.80750714	      0.24098646	     14.16393038	     -7.84521324	     -7.55623093	     -8.32920760	    -10.05165107	     -2.60553508	     49.90545648	     10.34049640	     64.75409172	    124.21922353	    107.95811204	     35.58548633	     13.64010935	     55.50180345	    121.83568772	    104.87155214
      0.06666670	     -5.21319755	     13.38987979	     -3.44845914	      0.06078306	      1.07640528	      0.14570305	      5.55422325	    -10.01828091	    -10.76578378	     15.87282228	      0.27703301	     23.35642110	     -4.38770669	     -7.54588546	     22.77806799	     17.90762185	      2.22639397	     13.32546020	      0.23257315	     14.67236473	     -7.74673902	     -7.54588546	     -8.37592692	    -10.59716381	     -2.42787495	     49.71022348	     10.11947647	     65.90979692	    124.33575499	    106.42061873	     36.12011306	     13.92235642	     56.90596166	    121.39162896	    102.76600517
      0.08333330	     -5.17064425	     13.45306551	     -3.28402483	      0.06092069	      1.07594806	      0.14631175	      5.84045895	    -10.19243021	    -11.21352651	     16.34417161	      0.28525961	     23.47554821	     -4.20963107	     -7.54092684	     22.83722507	     18.13214887	      2.66363423	     13.07578383	      0.22821548	     14.70095746	     -7.82631383	     -7.54092684	     -8.46198800	    -10.75385983	     -2.35752740	     49.70349749	      9.63545085	     66.42868846	    124.04238017	    106.22394849	     36.51707651	     13.98065570	     57.77336982	    120.74641689	    101.96390028
      0.10000000	     -5.56225246	     13.50297893	     -3.07386808	      0.06254408	      1.07414794	      0.14661921	      6.87672841	    -10.30326501	    -11.08327254	     17.32475571	      0.30237403	     23.26021657	     -4.00986066	     -7.53683454	     23.34198682	     18.24921728	      2.81868928	     12.89386162	      0.22504034	     14.62910014	     -7.72909595	     -7.53683454	     -7.82015795	    -10.88246927	     -2.47632465	     49.54054663	      9.18371749	     66.84366077	    123.70570071	    105.77722520	     36.31512273	     13.90199183	     58.16821713	    120.02441255	    100.84968412
      0.11666670	     -4.99963788	     13.62387766	     -3.05721916	      0.06401538	      1.07313817	      0.14757682	      6.79615561	    -10.65046215	    -11.54641040	     18.41916554	      0.32147508	     23.31173074	     -2.84979512	     -7.53293291	     22.71239720	     18.52890386	      3.00637752	     12.36184858	      0.21575496	     14.23703499	     -8.14229344	     -7.53293291	     -8.51722828	    -11.08790820	     -2.82946447	     49.98157403	      8.83453683	     67.10709100	    123.43563657	    105.58432876	     36.65301331	     13.70923634	     58.67093577	    119.38589346	     99.88330008
      0.13333330	     -4.98447909	     13.85965372	     -2.81441287	      0.06437154	      1.07113484	      0.14765487	      7.37602609	    -11.10915262	    -11.92862026	     19.82768163	      0.34605833	     23.61536632	     -2.15332995	     -7.52910822	     22.75302350	     18.88834382	      3.04425329	     11.93233480	      0.20825853	     13.79204985	     -8.46695401	     -7.52910822	     -8.60918475	    -11.36975300	     -3.10009276	     50.21470501	      8.42465387	     67.04373783	    122.87367956	    105.20276627	     36.70331568	     13.49390887	     58.80750583	    118.90452341	     98.64120157
      0.15000000	     -4.99859906	     14.29589888	     -2.36032952	      0.06657288	      1.06556270	      0.14920176	      7.68681220	    -11.80353220	    -12.73143568	     21.79316484	      0.38036248	     22.40165973	     -1.77467817	     -7.52849474	     22.76717230	     19.43375976	      2.98428572	     11.82865927	      0.20644905	     13.02704373	     -8.87081119	     -7.52849474	     -8.70346292	    -12.02209453	     -3.61270205	     50.32952472	      8.39533248	     66.18218915	    122.30389753	    105.15152374	     36.72803490	     13.18695543	     58.57629284	    118.32893998	     98.48190479
      0.16666670	     -5.81544257	     14.67961164	     -1.93418978	      0.06748913	      1.06134644	      0.14933460	      9.28023399	    -12.41397258	    -13.03000880	     23.93876151	      0.41781021	     21.95249970	     -2.44953626	     -7.52544588	     23.87665271	     19.81595138	      2.42819249	     11.75254670	      0.20512064	     12.95963218	     -9.03888141	     -7.52544588	     -7.86085725	    -12.52384357	     -3.63719953	     50.13365538	      8.20371851	     65.63092461	    121.68534539	    104.15724308	     36.32580952	     12.98390690	     58.63880703	    118.03288879	     96.75411030
      0.18333330	     -5.69431244	     15.12388221	     -1.59235195	      0.06847405	      1.06142575	      0.14952897	      9.51967788	    -13.23649877	    -13.89760519	     25.54948490	      0.44592263	     20.80197557	     -1.77642886	     -7.52274354	     23.67291140	     20.41450197	      2.38117192	     11.16642307	      0.19489085	     11.16242362	    -10.63800439	     -7.52274354	     -8.46896269	    -13.04435264	     -4.00648138	     50.27982140	      8.29716470	     64.79841872	    121.83732576	    104.40222365	     36.57639297	     12.80828466	     59.29999433	    118.56440742	     95.81013795
      0.20000000	     -5.86875423	     15.54174172	     -1.19972691	      0.07055873	      1.05881452	      0.14983983	     10.17430911	    -13.94751100	    -14.36817520	     26.78737907	      0.46752796	     20.39988310	     -2.11692770	     -7.52241509	     23.62928097	     20.92175756	      1.46475699	      9.58294944	      0.16725402	     10.09220427	    -10.93720899	     -7.52241509	     -8.66280397	    -13.48081558	     -4.37581148	     50.31764379	      8.33494250	     64.52115170	    121.78947073	    104.55783206	     36.43255518	     12.61796829	     59.29731619	    118.41244968	     95.85733148
      0.21666670	     -5.83759009	     15.87059921	     -0.89768429	      0.07364469	      1.05758503	      0.15011612	     10.72631644	    -14.64423332	    -14.64141450	     27.86260689	      0.48629423	     20.73263678	     -1.68755056	     -7.51909711	     22.97519218	     21.40670340	      1.23433120	      7.14001680	      0.12461680	      7.19074628	    -13.29165398	     -7.51909711	     -8.92376066	    -13.73029728	     -4.49492068	     50.23826759	      8.27999047	     64.82443111	    121.98449507	    105.44378514	     36.23465259	     12.58405662	     60.32467456	    118.75405155	     95.74225177
